<svg version="1.1" id="Layer_1" xmlns="http://www.w3.org/2000/svg" xmlns:xlink="http://www.w3.org/1999/xlink" x="0px" y="0px"
	 width="100%" viewBox="0 0 804 803" enable-background="new 0 0 804 803" xml:space="preserve">
<path fill="#FFFFFF" opacity="1.000000" stroke="none" 
	d="
M529.000000,804.000000 
	C352.666656,804.000000 176.833328,804.000000 1.000000,804.000000 
	C1.000000,536.333313 1.000000,268.666656 1.000000,1.000000 
	C269.000000,1.000000 537.000000,1.000000 805.000000,1.000000 
	C805.000000,268.666656 805.000000,536.333313 805.000000,804.000000 
	C713.166687,804.000000 621.333313,804.000000 529.000000,804.000000 
M380.033356,447.311523 
	C379.415009,446.518066 378.796661,445.724609 378.003815,444.248138 
	C369.671356,431.493652 361.338898,418.739166 352.870697,405.303833 
	C347.542969,397.217224 342.215240,389.130615 336.756958,380.364655 
	C332.371399,373.545135 327.923920,366.764038 323.651001,359.874664 
	C322.765686,358.447235 322.528564,356.617737 322.929413,354.979858 
	C329.203857,354.653320 335.537170,354.760437 341.741516,353.917847 
	C359.337280,351.528259 372.758911,342.450775 379.916534,326.197937 
	C392.665283,297.249329 396.232819,267.091095 388.636780,236.071045 
	C384.952057,221.023651 380.726715,206.067688 370.028687,194.163620 
	C358.866241,181.742798 345.895660,173.803406 328.066956,173.998077 
	C267.259369,174.662048 206.443314,174.554108 145.630478,174.734375 
	C138.453247,174.755646 131.275879,174.737274 123.235283,174.737274 
	C134.262573,190.693878 144.256180,205.777832 154.877579,220.405930 
	C185.419296,262.468872 216.217606,304.345428 246.909821,346.299072 
	C281.823029,394.022461 316.720947,441.757050 351.644745,489.472717 
	C368.121185,511.984131 384.642365,534.462769 401.292450,557.605774 
	C404.657532,560.776917 405.162140,556.716614 406.144348,555.373413 
	C421.775330,533.997253 437.269745,512.521179 452.794739,491.067474 
	C528.173096,386.903900 603.552612,282.741211 678.916504,178.567215 
	C680.029907,177.028137 680.948547,175.348175 682.339111,173.124771 
	C679.964233,173.124771 678.497864,173.118149 677.031616,173.125748 
	C642.716064,173.303543 608.400696,173.508667 574.084961,173.654709 
	C539.932983,173.800064 505.780487,173.966751 471.628662,173.897858 
	C467.309509,173.889145 464.521301,175.277374 461.988678,178.631195 
	C452.252197,191.524796 442.277740,204.238358 432.472504,217.080490 
	C426.933167,224.335510 421.550568,231.710205 415.555359,239.504456 
	C414.241241,243.448196 412.927094,247.391953 411.185455,251.718597 
	C411.476562,252.673203 411.767670,253.627792 412.960693,254.819916 
	C456.693176,254.718369 500.425659,254.616821 544.206970,255.299454 
	C543.692139,256.305206 543.336426,257.440643 542.638306,258.297028 
	C534.076904,268.799622 525.465393,279.261261 515.968201,289.967224 
	C504.573425,290.104950 493.177917,290.204926 481.784546,290.417358 
	C479.870911,290.453033 477.966370,290.975403 475.388947,291.520233 
	C469.863342,295.046722 463.097473,297.521027 459.045227,302.297485 
	C447.006195,316.488068 436.025909,331.577606 424.656830,346.335052 
	C422.975677,348.517242 421.429596,350.803528 419.098969,354.046234 
	C422.768402,354.676453 425.422333,355.132233 428.990601,355.746704 
	C445.870819,355.799927 462.751038,355.853119 479.486420,356.671539 
	C478.541138,358.398254 477.711914,360.201447 476.632690,361.839966 
	C465.402557,378.889801 454.132233,395.913147 442.284271,413.261444 
	C432.863922,427.529114 423.443542,441.796753 413.443420,456.389679 
	C409.019775,462.864136 404.596161,469.338593 399.509491,475.423553 
	C396.726868,471.925476 393.944244,468.427429 390.986908,464.248962 
	C387.352020,458.796112 383.717133,453.343262 380.019958,447.982208 
	C380.019958,447.982208 380.114929,447.924866 380.033356,447.311523 
M299.695251,587.741577 
	C295.126343,579.916504 293.300812,579.149902 284.699768,581.505432 
	C284.699768,592.638184 284.775818,603.795837 284.655670,614.951416 
	C284.617188,618.523499 285.863312,620.326721 289.587463,620.021606 
	C291.182037,619.891052 292.784943,619.862366 295.023499,619.757446 
	C295.023499,613.321350 295.023499,607.210327 295.023499,600.248657 
	C295.879547,601.423706 296.094788,601.670532 296.256500,601.948547 
	C298.596191,605.970276 300.910614,610.006775 303.266937,614.018677 
	C306.932648,620.259827 316.422638,620.314941 319.996948,614.136780 
	C322.443542,609.907776 324.907227,605.688660 327.363281,601.465149 
	C327.726959,601.552917 328.090668,601.640625 328.454346,601.728394 
	C328.454346,607.725708 328.454346,613.722961 328.454346,620.006653 
	C331.042816,620.006653 333.154266,620.426147 334.968201,619.872009 
	C336.383118,619.439697 338.455322,617.819214 338.479614,616.688904 
	C338.735321,604.791077 338.637756,592.885742 338.637756,581.048950 
	C328.062866,580.104797 328.065125,580.106140 323.235291,588.449951 
	C319.455933,594.979004 315.669952,601.504150 311.638611,608.459412 
	C307.533325,601.327576 303.803406,594.847900 299.695251,587.741577 
M205.732269,618.830933 
	C212.479111,622.174316 214.491745,620.492920 216.285355,609.680908 
	C220.173615,609.680908 224.165466,609.976379 228.093262,609.601196 
	C232.374283,609.192322 235.168594,610.612183 237.661179,614.154114 
	C239.342834,616.543762 241.975601,618.988525 244.658646,619.765015 
	C247.989059,620.728943 251.810608,619.996033 256.292267,619.996033 
	C252.693909,615.831848 249.629181,612.285217 247.317551,609.610046 
	C250.486603,606.322144 254.195251,603.885498 255.880707,600.454834 
	C260.498932,591.054565 253.030594,581.134277 241.243469,580.781128 
	C231.093903,580.476990 220.925690,580.838928 210.771225,580.633789 
	C206.753540,580.552734 205.575699,582.145325 205.638748,585.960876 
	C205.814850,596.616211 205.701614,607.276245 205.732269,618.830933 
M347.645905,583.463806 
	C347.666687,593.605896 347.867279,603.752319 347.626587,613.888184 
	C347.518616,618.433960 349.053040,620.163452 353.648346,620.074280 
	C364.474335,619.864014 375.307159,620.011719 386.137238,620.005127 
	C393.392395,620.000732 394.664337,618.311584 392.887512,610.613770 
	C381.372986,610.613770 369.770996,610.613770 357.992126,610.613770 
	C357.992126,608.342102 357.992126,606.435364 357.992126,604.029175 
	C366.369141,604.029175 374.432678,604.029175 382.365509,604.029175 
	C382.365509,601.097229 382.365509,598.673462 382.365509,595.844910 
	C373.975250,595.844910 365.882477,595.844910 357.617279,595.844910 
	C357.715149,593.795837 357.792542,592.175476 357.893677,590.058350 
	C369.864746,590.058350 381.606812,590.058350 393.282440,590.058350 
	C394.167389,581.044922 393.871521,580.708618 385.552032,580.708435 
	C374.721954,580.708191 363.890533,580.622803 353.063202,580.795105 
	C351.320923,580.822754 349.596924,582.000000 347.645905,583.463806 
M172.479980,580.699768 
	C165.995850,580.699890 159.502884,580.519775 153.034256,580.836365 
	C151.555954,580.908691 148.939941,582.665222 148.914993,583.696533 
	C148.623810,595.733521 148.728470,607.780029 148.728470,620.488037 
	C151.985565,619.923340 155.621033,620.347778 156.815704,618.839233 
	C158.616989,616.564758 158.713409,612.940063 159.590561,609.680908 
	C163.776367,609.680908 168.086960,609.739136 172.395248,609.664795 
	C176.875671,609.587463 181.392273,609.695862 185.823456,609.153992 
	C191.445511,608.466492 196.520157,606.355286 198.986603,600.677551 
	C202.976074,591.493774 196.762131,582.004822 185.926804,580.912537 
	C181.809052,580.497498 177.623886,580.751038 172.479980,580.699768 
M656.946289,595.843140 
	C652.445862,595.154968 650.502808,596.820679 650.894775,601.601990 
	C651.261108,606.071228 651.124573,610.600830 650.925476,615.091248 
	C650.764282,618.726318 652.070068,620.217529 655.827393,620.085449 
	C661.985413,619.869141 668.163696,619.847229 674.320007,620.086975 
	C678.801086,620.261536 680.007080,618.524963 678.624084,614.288208 
	C672.372131,614.288208 666.224060,614.364746 660.081848,614.209961 
	C659.104736,614.185364 658.153687,613.121216 657.190613,612.537720 
	C658.198730,611.800781 659.164612,610.508240 660.222717,610.427856 
	C663.868347,610.150940 667.546509,610.314697 671.211487,610.259033 
	C671.643188,610.252441 672.070007,609.926331 672.779663,609.632019 
	C672.614319,608.212708 672.453735,606.834717 672.274292,605.294373 
	C668.531311,605.294373 665.192505,605.497864 661.897339,605.207031 
	C660.289429,605.065002 658.762817,604.001343 657.199402,603.354858 
	C658.693542,602.805115 660.173767,601.830322 661.684204,601.781128 
	C667.436279,601.594055 673.197998,601.705688 678.746277,601.705688 
	C679.962158,597.090332 678.432251,595.604065 674.352905,595.783203 
	C668.864380,596.024109 663.357300,595.843140 656.946289,595.843140 
M519.918152,616.850586 
	C523.400208,620.446350 527.448547,620.155151 529.902710,616.103394 
	C531.347351,613.718323 532.735413,611.298950 534.148926,608.894958 
	C534.478760,609.055725 534.808594,609.216431 535.138428,609.377197 
	C535.138428,612.823914 535.138428,616.270630 535.138428,620.143127 
	C537.673035,619.501831 541.095215,621.561707 541.124268,616.904846 
	C541.167542,609.961365 541.135559,603.017395 541.135559,596.310120 
	C536.131470,594.712341 533.629456,596.720947 531.715759,600.743835 
	C529.776794,604.819702 527.201721,608.592957 524.664978,612.907532 
	C521.922424,608.226196 519.277405,604.359863 517.313416,600.173950 
	C515.403870,596.104187 512.743652,594.942871 508.317261,596.428955 
	C508.317261,602.677612 508.517792,608.984070 508.250153,615.270569 
	C508.056305,619.823181 509.934692,620.817505 514.363892,619.415588 
	C514.363892,616.136169 514.363892,612.755127 514.363892,609.374146 
	C514.684204,609.289490 515.004578,609.204773 515.324890,609.120117 
	C516.718872,611.474304 518.112854,613.828491 519.918152,616.850586 
M489.359650,595.862732 
	C484.877014,595.862976 480.370422,595.604248 475.925903,596.015930 
	C474.529572,596.145325 472.230560,598.020203 472.169983,599.190613 
	C471.812714,606.091431 471.994110,613.020142 471.994110,619.544373 
	C478.291199,621.716553 478.136688,617.334534 478.553070,613.910645 
	C488.818817,613.234253 489.131287,613.022766 491.220459,616.109070 
	C494.123199,620.397278 497.848755,620.614136 502.586700,619.527954 
	C500.714111,617.289856 499.074738,615.330505 497.223633,613.118103 
	C501.945709,610.987793 504.378754,607.817200 503.197937,602.740051 
	C502.162750,598.289062 498.618134,596.935547 494.775421,596.102539 
	C493.336884,595.790649 491.800659,595.929382 489.359650,595.862732 
M468.505554,602.551331 
	C466.786591,598.529297 463.767639,596.150879 459.392517,595.951782 
	C455.084076,595.755676 450.749084,595.710876 446.445526,595.952393 
	C441.454987,596.232361 438.069000,598.910034 436.807861,603.831726 
	C435.253113,609.899414 436.733856,615.981689 441.101196,618.017639 
	C448.605835,621.516296 456.689148,621.222656 464.161774,618.192261 
	C466.505219,617.241943 467.960724,613.154541 468.979645,610.211182 
	C469.686401,608.169617 468.950531,605.628662 468.505554,602.551331 
M612.300293,615.048828 
	C612.300293,610.223328 612.073303,605.384094 612.364990,600.576294 
	C612.649536,595.886047 610.476013,595.198486 606.034363,596.410706 
	C606.034363,601.329163 606.034363,606.328369 606.034363,612.068481 
	C599.900208,606.736511 594.666077,601.879822 589.054138,597.507996 
	C587.500305,596.297546 584.759216,596.058594 582.695801,596.341858 
	C581.930237,596.447021 581.141785,599.309082 581.064453,600.946899 
	C580.845215,605.595642 581.167908,610.270386 580.937073,614.917969 
	C580.705688,619.577148 582.698486,620.811707 587.283875,619.506470 
	C587.283875,614.435486 587.283875,609.385986 587.283875,603.565491 
	C593.416199,608.845825 598.808350,613.723389 604.496582,618.227112 
	C605.978943,619.400757 608.393494,619.792053 610.359924,619.742737 
	C611.038086,619.725708 611.655273,617.278076 612.300293,615.048828 
M263.869476,588.525757 
	C263.869476,595.525574 263.869446,602.525452 263.869476,609.525269 
	C263.869476,620.336060 263.869690,620.341675 274.628540,619.964233 
	C275.059509,619.949158 275.480103,619.636230 276.006897,619.420532 
	C276.006897,610.021973 276.006897,600.700928 276.006897,591.379822 
	C276.006897,580.507874 276.006836,580.505127 265.108887,580.777771 
	C264.826904,580.784851 264.550537,581.018066 263.869476,581.329895 
	C263.869476,583.271179 263.869476,585.400879 263.869476,588.525757 
M623.525635,596.423584 
	C617.033020,599.733276 614.889282,604.731323 616.783752,612.142639 
	C618.144592,617.466431 622.047607,619.987427 628.985596,620.004822 
	C633.306702,620.015625 637.627869,620.017944 641.948914,620.004089 
	C647.510010,619.986206 647.791687,619.619263 646.632874,613.869507 
	C640.848877,613.869507 635.035095,613.887451 629.221497,613.864380 
	C623.713501,613.842529 622.359009,612.571594 622.270752,607.840149 
	C622.175598,602.738953 625.217041,601.860657 629.439453,601.968750 
	C635.343506,602.119934 641.254211,602.006897 646.948059,602.006897 
	C648.059570,597.266724 646.619324,595.550476 642.256958,595.804749 
	C636.293640,596.152405 630.303833,596.045776 623.525635,596.423584 
M544.340637,616.954041 
	C543.900208,617.813843 543.459839,618.673584 542.918640,619.730225 
	C546.559937,620.223145 549.757935,620.693726 551.757385,616.862549 
	C552.130127,616.148376 553.694702,615.768982 554.725159,615.736145 
	C558.713013,615.609009 562.709656,615.607971 566.697388,615.736816 
	C567.731750,615.770203 569.314270,616.159546 569.673706,616.874084 
	C571.631165,620.764709 574.715454,620.201416 578.467773,619.651489 
	C574.503235,612.612610 570.822815,605.967468 567.033325,599.385071 
	C564.044739,594.193848 557.323303,594.216431 554.334900,599.406006 
	C551.103149,605.018311 547.958862,610.681030 544.340637,616.954041 
M414.941040,604.868835 
	C413.909546,604.377197 412.878052,603.885498 411.846558,603.393860 
	C411.972473,602.950073 412.098419,602.506348 412.224335,602.062561 
	C419.456299,602.062561 426.688263,602.062561 433.780426,602.062561 
	C435.004120,597.192139 433.351074,595.578491 428.843170,595.795776 
	C422.704254,596.091797 416.537628,595.978333 410.388214,595.825500 
	C407.167725,595.745422 405.865479,596.974304 405.956390,600.201355 
	C406.096863,605.186462 406.149597,610.184875 405.946625,615.165710 
	C405.764160,619.643433 407.892059,620.634460 412.153320,619.664795 
	C412.153320,616.910889 412.153320,614.165771 412.153320,610.981079 
	C417.459015,610.981079 422.371674,610.981079 427.437775,610.981079 
	C427.437775,608.793030 427.437775,607.057800 427.437775,604.869446 
	C423.433167,604.869446 419.645294,604.869446 414.941040,604.868835 
z"/>
<path fill="#060708" opacity="1.000000" stroke="none" 
	d="
M401.143250,556.956299 
	C384.642365,534.462769 368.121185,511.984131 351.644745,489.472717 
	C316.720947,441.757050 281.823029,394.022461 246.909821,346.299072 
	C216.217606,304.345428 185.419296,262.468872 154.877579,220.405930 
	C144.256180,205.777832 134.262573,190.693878 123.235283,174.737274 
	C131.275879,174.737274 138.453247,174.755646 145.630478,174.734375 
	C206.443314,174.554108 267.259369,174.662048 328.066956,173.998077 
	C345.895660,173.803406 358.866241,181.742798 370.028687,194.163620 
	C380.726715,206.067688 384.952057,221.023651 388.636780,236.071045 
	C396.232819,267.091095 392.665283,297.249329 379.916534,326.197937 
	C372.758911,342.450775 359.337280,351.528259 341.741516,353.917847 
	C335.537170,354.760437 329.203857,354.653320 322.193420,354.719269 
	C317.474457,354.765961 313.491516,355.073212 308.535461,355.455536 
	C313.409821,362.829956 317.767487,369.422699 322.250183,376.324219 
	C330.897949,389.780609 339.420685,402.928223 348.089783,416.382660 
	C350.483612,420.133270 352.721039,423.583649 354.980499,427.019531 
	C360.662933,435.660553 366.355347,444.295044 372.154449,453.261536 
	C377.166382,461.064270 382.067627,468.537659 387.038116,476.352386 
	C392.027374,484.214783 396.947388,491.735840 401.952942,499.654602 
	C402.364563,501.484772 402.968689,502.916199 402.974152,504.349884 
	C403.036591,520.753052 403.044830,537.156921 402.923584,553.559509 
	C402.915222,554.696045 401.763336,555.824219 401.143250,556.956299 
M319.907684,247.188507 
	C317.270874,245.763611 314.634064,244.338715 311.499664,242.329910 
	C309.437347,241.886581 307.376251,241.064041 305.312531,241.057373 
	C278.763916,240.971527 252.214951,240.996964 225.666077,241.017593 
	C224.255463,241.018677 222.845016,241.228317 220.617691,241.406052 
	C221.805328,242.695724 222.406479,243.348526 223.120712,244.680145 
	C227.035172,249.140442 230.949631,253.600754 234.980911,258.648193 
	C235.351883,259.085968 235.722855,259.523743 236.348434,260.576935 
	C242.775101,268.142517 249.765564,275.311218 255.456314,283.394867 
	C260.316010,290.298096 266.366119,292.013275 274.917328,291.109467 
	C284.733917,291.085602 294.554443,291.229431 304.366180,290.999329 
	C319.879639,290.635468 331.087097,276.819946 328.823212,260.798218 
	C327.260834,255.551575 325.506714,250.435547 319.907684,247.188507 
z"/>
<path fill="#3A3A39" opacity="1.000000" stroke="none" 
	d="
M401.217834,557.281006 
	C401.763336,555.824219 402.915222,554.696045 402.923584,553.559509 
	C403.044830,537.156921 403.036591,520.753052 402.974152,504.349884 
	C402.968689,502.916199 402.364563,501.484772 402.218445,499.381775 
	C402.545868,497.497772 402.693359,496.284332 403.234009,495.050293 
	C405.910004,493.411865 408.850830,492.254608 410.361542,490.096313 
	C416.804382,480.891754 422.824493,471.391266 429.300293,461.844330 
	C433.553467,455.766541 437.494019,449.835724 441.458893,443.921173 
	C458.376740,418.684021 475.321533,393.464874 492.183685,368.190552 
	C493.426666,366.327393 494.092438,364.079163 495.186523,361.700592 
	C496.688507,359.756927 498.030518,358.122650 499.372528,356.488342 
	C499.095154,355.907715 498.817780,355.327087 498.540405,354.746490 
	C492.237366,355.133087 485.934296,355.519684 479.631256,355.906311 
	C462.751038,355.853119 445.870819,355.799927 428.539185,355.325562 
	C428.346405,354.141937 428.426971,353.243469 428.890076,352.637085 
	C437.734924,341.055695 446.621216,329.505981 455.506409,317.955444 
	C462.351440,309.057129 469.206848,300.166809 476.057617,291.272888 
	C477.966370,290.975403 479.870911,290.453033 481.784546,290.417358 
	C493.177917,290.204926 504.573425,290.104950 516.651001,290.167206 
	C520.556824,291.901184 522.916382,290.681030 525.254089,288.301849 
	C533.064697,280.352844 540.992188,272.518005 548.916565,264.681488 
	C556.577271,257.105835 564.289490,249.582245 572.250000,241.834717 
	C574.739563,237.454590 570.975891,239.057678 569.744324,239.056061 
	C518.528748,238.988831 467.313049,239.015793 416.097351,239.030975 
	C421.550568,231.710205 426.933167,224.335510 432.472504,217.080490 
	C442.277740,204.238358 452.252197,191.524796 461.988678,178.631195 
	C464.521301,175.277374 467.309509,173.889145 471.628662,173.897858 
	C505.780487,173.966751 539.932983,173.800064 574.084961,173.654709 
	C608.400696,173.508667 642.716064,173.303543 677.031616,173.125748 
	C678.497864,173.118149 679.964233,173.124771 682.339111,173.124771 
	C680.948547,175.348175 680.029907,177.028137 678.916504,178.567215 
	C603.552612,282.741211 528.173096,386.903900 452.794739,491.067474 
	C437.269745,512.521179 421.775330,533.997253 406.144348,555.373413 
	C405.162140,556.716614 404.657532,560.776917 401.217834,557.281006 
z"/>
<path fill="#242525" opacity="1.000000" stroke="none" 
	d="
M415.826355,239.267715 
	C467.313049,239.015793 518.528748,238.988831 569.744324,239.056061 
	C570.975891,239.057678 574.739563,237.454590 571.875488,241.836395 
	C568.083374,243.402451 564.905151,244.697815 561.796936,246.143738 
	C555.896179,248.888733 550.035522,251.719925 544.158142,254.515305 
	C500.425659,254.616821 456.693176,254.718369 412.503906,254.289841 
	C411.902405,252.951736 411.757690,252.143723 411.612976,251.335693 
	C412.927094,247.391953 414.241241,243.448196 415.826355,239.267715 
z"/>
<path fill="#070707" opacity="1.000000" stroke="none" 
	d="
M299.884369,588.054871 
	C303.803406,594.847900 307.533325,601.327576 311.638611,608.459412 
	C315.669952,601.504150 319.455933,594.979004 323.235291,588.449951 
	C328.065125,580.106140 328.062866,580.104797 338.637756,581.048950 
	C338.637756,592.885742 338.735321,604.791077 338.479614,616.688904 
	C338.455322,617.819214 336.383118,619.439697 334.968201,619.872009 
	C333.154266,620.426147 331.042816,620.006653 328.454346,620.006653 
	C328.454346,613.722961 328.454346,607.725708 328.454346,601.728394 
	C328.090668,601.640625 327.726959,601.552917 327.363281,601.465149 
	C324.907227,605.688660 322.443542,609.907776 319.996948,614.136780 
	C316.422638,620.314941 306.932648,620.259827 303.266937,614.018677 
	C300.910614,610.006775 298.596191,605.970276 296.256500,601.948547 
	C296.094788,601.670532 295.879547,601.423706 295.023499,600.248657 
	C295.023499,607.210327 295.023499,613.321350 295.023499,619.757446 
	C292.784943,619.862366 291.182037,619.891052 289.587463,620.021606 
	C285.863312,620.326721 284.617188,618.523499 284.655670,614.951416 
	C284.775818,603.795837 284.699768,592.638184 284.699768,581.505432 
	C293.300812,579.149902 295.126343,579.916504 299.884369,588.054871 
z"/>
<path fill="#070707" opacity="1.000000" stroke="none" 
	d="
M205.717438,618.382690 
	C205.701614,607.276245 205.814850,596.616211 205.638748,585.960876 
	C205.575699,582.145325 206.753540,580.552734 210.771225,580.633789 
	C220.925690,580.838928 231.093903,580.476990 241.243469,580.781128 
	C253.030594,581.134277 260.498932,591.054565 255.880707,600.454834 
	C254.195251,603.885498 250.486603,606.322144 247.317551,609.610046 
	C249.629181,612.285217 252.693909,615.831848 256.292267,619.996033 
	C251.810608,619.996033 247.989059,620.728943 244.658646,619.765015 
	C241.975601,618.988525 239.342834,616.543762 237.661179,614.154114 
	C235.168594,610.612183 232.374283,609.192322 228.093262,609.601196 
	C224.165466,609.976379 220.173615,609.680908 216.285355,609.680908 
	C214.491745,620.492920 212.479111,622.174316 205.717438,618.382690 
M232.427704,599.732239 
	C235.079788,599.720520 237.938004,600.314148 240.317963,599.503479 
	C242.184662,598.867737 243.459763,596.495056 244.997665,594.893982 
	C243.457016,593.491455 241.974640,590.959900 240.365891,590.876770 
	C232.308884,590.460876 224.218750,590.686340 215.902725,590.686340 
	C215.902725,593.808044 215.902725,596.527466 215.902725,599.732239 
	C221.244888,599.732239 226.347412,599.732239 232.427704,599.732239 
z"/>
<path fill="#292929" opacity="1.000000" stroke="none" 
	d="
M495.026550,362.009949 
	C494.092438,364.079163 493.426666,366.327393 492.183685,368.190552 
	C475.321533,393.464874 458.376740,418.684021 441.458893,443.921173 
	C437.494019,449.835724 433.553467,455.766541 428.954254,461.881226 
	C425.269531,464.842957 422.232300,467.613342 419.294098,470.293396 
	C414.293671,465.975372 413.476166,461.244843 414.023193,456.064392 
	C423.443542,441.796753 432.863922,427.529114 442.853394,413.289734 
	C444.203308,415.212646 445.016693,416.735107 447.118439,414.399811 
	C450.887634,410.211792 454.785431,406.139313 458.542084,401.940308 
	C466.379150,393.180511 474.097260,384.313568 481.987885,375.602631 
	C486.201202,370.951355 490.671967,366.533264 495.026550,362.009949 
z"/>
<path fill="#040404" opacity="1.000000" stroke="none" 
	d="
M347.755188,583.054810 
	C349.596924,582.000000 351.320923,580.822754 353.063202,580.795105 
	C363.890533,580.622803 374.721954,580.708191 385.552032,580.708435 
	C393.871521,580.708618 394.167389,581.044922 393.282440,590.058350 
	C381.606812,590.058350 369.864746,590.058350 357.893677,590.058350 
	C357.792542,592.175476 357.715149,593.795837 357.617279,595.844910 
	C365.882477,595.844910 373.975250,595.844910 382.365509,595.844910 
	C382.365509,598.673462 382.365509,601.097229 382.365509,604.029175 
	C374.432678,604.029175 366.369141,604.029175 357.992126,604.029175 
	C357.992126,606.435364 357.992126,608.342102 357.992126,610.613770 
	C369.770996,610.613770 381.372986,610.613770 392.887512,610.613770 
	C394.664337,618.311584 393.392395,620.000732 386.137238,620.005127 
	C375.307159,620.011719 364.474335,619.864014 353.648346,620.074280 
	C349.053040,620.163452 347.518616,618.433960 347.626587,613.888184 
	C347.867279,603.752319 347.666687,593.605896 347.755188,583.054810 
z"/>
<path fill="#070707" opacity="1.000000" stroke="none" 
	d="
M172.974716,580.699829 
	C177.623886,580.751038 181.809052,580.497498 185.926804,580.912537 
	C196.762131,582.004822 202.976074,591.493774 198.986603,600.677551 
	C196.520157,606.355286 191.445511,608.466492 185.823456,609.153992 
	C181.392273,609.695862 176.875671,609.587463 172.395248,609.664795 
	C168.086960,609.739136 163.776367,609.680908 159.590561,609.680908 
	C158.713409,612.940063 158.616989,616.564758 156.815704,618.839233 
	C155.621033,620.347778 151.985565,619.923340 148.728470,620.488037 
	C148.728470,607.780029 148.623810,595.733521 148.914993,583.696533 
	C148.939941,582.665222 151.555954,580.908691 153.034256,580.836365 
	C159.502884,580.519775 165.995850,580.699890 172.974716,580.699829 
M158.648590,595.351440 
	C158.773727,596.747070 158.898880,598.142700 159.041077,599.728577 
	C167.138779,599.728577 174.748108,599.797791 182.355072,599.694458 
	C185.396194,599.653198 188.090851,598.711975 187.970200,594.914917 
	C187.857834,591.378418 185.282913,590.685669 182.417923,590.666382 
	C175.621521,590.620605 168.819229,590.809204 162.030396,590.577759 
	C158.941528,590.472473 158.298294,591.791809 158.648590,595.351440 
z"/>
<path fill="#222222" opacity="1.000000" stroke="none" 
	d="
M495.186523,361.700562 
	C490.671967,366.533264 486.201202,370.951355 481.987885,375.602631 
	C474.097260,384.313568 466.379150,393.180511 458.542084,401.940308 
	C454.785431,406.139313 450.887634,410.211792 447.118439,414.399811 
	C445.016693,416.735107 444.203308,415.212646 443.147827,413.130920 
	C454.132233,395.913147 465.402557,378.889801 476.632690,361.839966 
	C477.711914,360.201447 478.541138,358.398254 479.558838,356.288910 
	C485.934296,355.519684 492.237366,355.133087 498.540405,354.746490 
	C498.817780,355.327087 499.095154,355.907715 499.372528,356.488342 
	C498.030518,358.122650 496.688507,359.756927 495.186523,361.700562 
z"/>
<path fill="#595959" opacity="1.000000" stroke="none" 
	d="
M475.723267,291.396545 
	C469.206848,300.166809 462.351440,309.057129 455.506409,317.955444 
	C446.621216,329.505981 437.734924,341.055695 428.890076,352.637085 
	C428.426971,353.243469 428.346405,354.141937 428.082031,355.246246 
	C425.422333,355.132233 422.768402,354.676453 419.098969,354.046234 
	C421.429596,350.803528 422.975677,348.517242 424.656830,346.335052 
	C436.025909,331.577606 447.006195,316.488068 459.045227,302.297485 
	C463.097473,297.521027 469.863342,295.046722 475.723267,291.396545 
z"/>
<path fill="#0E0E0E" opacity="1.000000" stroke="none" 
	d="
M657.402222,595.843201 
	C663.357300,595.843140 668.864380,596.024109 674.352905,595.783203 
	C678.432251,595.604065 679.962158,597.090332 678.746277,601.705688 
	C673.197998,601.705688 667.436279,601.594055 661.684204,601.781128 
	C660.173767,601.830322 658.693542,602.805115 657.199402,603.354858 
	C658.762817,604.001343 660.289429,605.065002 661.897339,605.207031 
	C665.192505,605.497864 668.531311,605.294373 672.274292,605.294373 
	C672.453735,606.834717 672.614319,608.212708 672.779663,609.632019 
	C672.070007,609.926331 671.643188,610.252441 671.211487,610.259033 
	C667.546509,610.314697 663.868347,610.150940 660.222717,610.427856 
	C659.164612,610.508240 658.198730,611.800781 657.190613,612.537720 
	C658.153687,613.121216 659.104736,614.185364 660.081848,614.209961 
	C666.224060,614.364746 672.372131,614.288208 678.624084,614.288208 
	C680.007080,618.524963 678.801086,620.261536 674.320007,620.086975 
	C668.163696,619.847229 661.985413,619.869141 655.827393,620.085449 
	C652.070068,620.217529 650.764282,618.726318 650.925476,615.091248 
	C651.124573,610.600830 651.261108,606.071228 650.894775,601.601990 
	C650.502808,596.820679 652.445862,595.154968 657.402222,595.843201 
z"/>
<path fill="#060708" opacity="1.000000" stroke="none" 
	d="
M519.712463,616.516663 
	C518.112854,613.828491 516.718872,611.474304 515.324890,609.120117 
	C515.004578,609.204773 514.684204,609.289490 514.363892,609.374146 
	C514.363892,612.755127 514.363892,616.136169 514.363892,619.415588 
	C509.934692,620.817505 508.056305,619.823181 508.250153,615.270569 
	C508.517792,608.984070 508.317261,602.677612 508.317261,596.428955 
	C512.743652,594.942871 515.403870,596.104187 517.313416,600.173950 
	C519.277405,604.359863 521.922424,608.226196 524.664978,612.907532 
	C527.201721,608.592957 529.776794,604.819702 531.715759,600.743835 
	C533.629456,596.720947 536.131470,594.712341 541.135559,596.310120 
	C541.135559,603.017395 541.167542,609.961365 541.124268,616.904846 
	C541.095215,621.561707 537.673035,619.501831 535.138428,620.143127 
	C535.138428,616.270630 535.138428,612.823914 535.138428,609.377197 
	C534.808594,609.216431 534.478760,609.055725 534.148926,608.894958 
	C532.735413,611.298950 531.347351,613.718323 529.902710,616.103394 
	C527.448547,620.155151 523.400208,620.446350 519.712463,616.516663 
z"/>
<path fill="#070707" opacity="1.000000" stroke="none" 
	d="
M489.834320,595.862732 
	C491.800659,595.929382 493.336884,595.790649 494.775421,596.102539 
	C498.618134,596.935547 502.162750,598.289062 503.197937,602.740051 
	C504.378754,607.817200 501.945709,610.987793 497.223633,613.118103 
	C499.074738,615.330505 500.714111,617.289856 502.586700,619.527954 
	C497.848755,620.614136 494.123199,620.397278 491.220459,616.109070 
	C489.131287,613.022766 488.818817,613.234253 478.553070,613.910645 
	C478.136688,617.334534 478.291199,621.716553 471.994110,619.544373 
	C471.994110,613.020142 471.812714,606.091431 472.169983,599.190613 
	C472.230560,598.020203 474.529572,596.145325 475.925903,596.015930 
	C480.370422,595.604248 484.877014,595.862976 489.834320,595.862732 
M478.134918,606.221069 
	C483.792419,606.470398 489.449158,606.767883 495.109161,606.855652 
	C495.469788,606.861267 496.353668,605.047302 496.112183,604.418518 
	C495.757690,603.495667 494.639496,602.277344 493.790070,602.231445 
	C489.142914,601.979675 484.472260,601.923523 479.827240,602.153870 
	C479.205658,602.184753 478.683472,604.219727 478.134918,606.221069 
z"/>
<path fill="#414140" opacity="1.000000" stroke="none" 
	d="
M347.943390,416.075836 
	C339.420685,402.928223 330.897949,389.780609 322.602173,376.325562 
	C326.676636,378.961761 330.524170,381.905426 334.598846,385.022858 
	C335.487457,383.477997 336.187469,382.260986 336.887512,381.043976 
	C342.215240,389.130615 347.542969,397.217224 352.929382,406.028900 
	C357.910553,416.623993 362.833038,426.494019 367.755524,436.364014 
	C367.285248,436.664795 366.814972,436.965576 366.344696,437.266357 
	C365.014801,435.719910 363.605377,434.234131 362.369568,432.615814 
	C358.358215,427.362854 354.447235,422.032654 350.383911,416.820831 
	C349.955963,416.271881 348.775024,416.310028 347.943390,416.075836 
z"/>
<path fill="#3E3E3E" opacity="1.000000" stroke="none" 
	d="
M544.182556,254.907379 
	C550.035522,251.719925 555.896179,248.888733 561.796936,246.143738 
	C564.905151,244.697815 568.083374,243.402451 571.604553,242.037445 
	C564.289490,249.582245 556.577271,257.105835 548.916565,264.681488 
	C540.992188,272.518005 533.064697,280.352844 525.254089,288.301849 
	C522.916382,290.681030 520.556824,291.901184 517.100342,290.050354 
	C525.465393,279.261261 534.076904,268.799622 542.638306,258.297028 
	C543.336426,257.440643 543.692139,256.305206 544.182556,254.907379 
z"/>
<path fill="#070707" opacity="1.000000" stroke="none" 
	d="
M468.682373,602.931030 
	C468.950531,605.628662 469.686401,608.169617 468.979645,610.211182 
	C467.960724,613.154541 466.505219,617.241943 464.161774,618.192261 
	C456.689148,621.222656 448.605835,621.516296 441.101196,618.017639 
	C436.733856,615.981689 435.253113,609.899414 436.807861,603.831726 
	C438.069000,598.910034 441.454987,596.232361 446.445526,595.952393 
	C450.749084,595.710876 455.084076,595.755676 459.392517,595.951782 
	C463.767639,596.150879 466.786591,598.529297 468.682373,602.931030 
M448.845642,601.993164 
	C444.472076,601.551208 442.246338,603.544067 442.286316,607.923828 
	C442.325714,612.241028 444.472351,614.253235 448.885406,613.920349 
	C451.356628,613.733948 453.862427,613.751892 456.336761,613.916504 
	C460.727570,614.208557 463.111267,612.959534 463.130280,607.881897 
	C463.149902,602.649902 460.451813,601.741882 456.222351,601.972595 
	C454.074860,602.089783 451.915649,601.993103 448.845642,601.993164 
z"/>
<path fill="#323232" opacity="1.000000" stroke="none" 
	d="
M413.733337,456.227051 
	C413.476166,461.244843 414.293671,465.975372 419.294098,470.293396 
	C422.232300,467.613342 425.269531,464.842957 428.652802,462.035675 
	C422.824493,471.391266 416.804382,480.891754 410.361542,490.096313 
	C408.850830,492.254608 405.910004,493.411865 402.986084,494.747833 
	C401.620850,488.248352 400.896698,482.030731 400.172546,475.813049 
	C404.596161,469.338593 409.019775,462.864136 413.733337,456.227051 
z"/>
<path fill="#070707" opacity="1.000000" stroke="none" 
	d="
M612.300293,615.494812 
	C611.655273,617.278076 611.038086,619.725708 610.359924,619.742737 
	C608.393494,619.792053 605.978943,619.400757 604.496582,618.227112 
	C598.808350,613.723389 593.416199,608.845825 587.283875,603.565491 
	C587.283875,609.385986 587.283875,614.435486 587.283875,619.506470 
	C582.698486,620.811707 580.705688,619.577148 580.937073,614.917969 
	C581.167908,610.270386 580.845215,605.595642 581.064453,600.946899 
	C581.141785,599.309082 581.930237,596.447021 582.695801,596.341858 
	C584.759216,596.058594 587.500305,596.297546 589.054138,597.507996 
	C594.666077,601.879822 599.900208,606.736511 606.034363,612.068481 
	C606.034363,606.328369 606.034363,601.329163 606.034363,596.410706 
	C610.476013,595.198486 612.649536,595.886047 612.364990,600.576294 
	C612.073303,605.384094 612.300293,610.223328 612.300293,615.494812 
z"/>
<path fill="#040404" opacity="1.000000" stroke="none" 
	d="
M263.869476,588.028198 
	C263.869476,585.400879 263.869476,583.271179 263.869476,581.329895 
	C264.550537,581.018066 264.826904,580.784851 265.108887,580.777771 
	C276.006836,580.505127 276.006897,580.507874 276.006897,591.379822 
	C276.006897,600.700928 276.006897,610.021973 276.006897,619.420532 
	C275.480103,619.636230 275.059509,619.949158 274.628540,619.964233 
	C263.869690,620.341675 263.869476,620.336060 263.869476,609.525269 
	C263.869446,602.525452 263.869476,595.525574 263.869476,588.028198 
z"/>
<path fill="#040404" opacity="1.000000" stroke="none" 
	d="
M623.925537,596.278687 
	C630.303833,596.045776 636.293640,596.152405 642.256958,595.804749 
	C646.619324,595.550476 648.059570,597.266724 646.948059,602.006897 
	C641.254211,602.006897 635.343506,602.119934 629.439453,601.968750 
	C625.217041,601.860657 622.175598,602.738953 622.270752,607.840149 
	C622.359009,612.571594 623.713501,613.842529 629.221497,613.864380 
	C635.035095,613.887451 640.848877,613.869507 646.632874,613.869507 
	C647.791687,619.619263 647.510010,619.986206 641.948914,620.004089 
	C637.627869,620.017944 633.306702,620.015625 628.985596,620.004822 
	C622.047607,619.987427 618.144592,617.466431 616.783752,612.142639 
	C614.889282,604.731323 617.033020,599.733276 623.925537,596.278687 
z"/>
<path fill="#060708" opacity="1.000000" stroke="none" 
	d="
M544.558472,616.637939 
	C547.958862,610.681030 551.103149,605.018311 554.334900,599.406006 
	C557.323303,594.216431 564.044739,594.193848 567.033325,599.385071 
	C570.822815,605.967468 574.503235,612.612610 578.467773,619.651489 
	C574.715454,620.201416 571.631165,620.764709 569.673706,616.874084 
	C569.314270,616.159546 567.731750,615.770203 566.697388,615.736816 
	C562.709656,615.607971 558.713013,615.609009 554.725159,615.736145 
	C553.694702,615.768982 552.130127,616.148376 551.757385,616.862549 
	C549.757935,620.693726 546.559937,620.223145 542.918640,619.730225 
	C543.459839,618.673584 543.900208,617.813843 544.558472,616.637939 
M560.050049,601.933655 
	C558.566772,604.699219 557.083557,607.464722 555.466309,610.480103 
	C559.392761,610.480103 562.449341,610.480103 566.359497,610.480103 
	C564.164612,607.084839 562.328369,604.244568 560.050049,601.933655 
z"/>
<path fill="#4E4D4C" opacity="1.000000" stroke="none" 
	d="
M348.089783,416.382660 
	C348.775024,416.310028 349.955963,416.271881 350.383911,416.820831 
	C354.447235,422.032654 358.358215,427.362854 362.369568,432.615814 
	C363.605377,434.234131 365.014801,435.719910 366.344696,437.266357 
	C366.814972,436.965576 367.285248,436.664795 367.755524,436.364014 
	C362.833038,426.494019 357.910553,416.623993 352.997253,406.369324 
	C361.338898,418.739166 369.671356,431.493652 377.819672,444.762726 
	C378.462006,446.159821 379.288483,447.042358 380.114929,447.924866 
	C380.114929,447.924866 380.019958,447.982208 380.024261,448.347626 
	C380.805573,452.171600 381.997162,455.684387 379.173248,458.441925 
	C376.667206,456.505219 374.355469,454.718689 372.043732,452.932159 
	C366.355347,444.295044 360.662933,435.660553 354.980499,427.019531 
	C352.721039,423.583649 350.483612,420.133270 348.089783,416.382660 
z"/>
<path fill="#040404" opacity="1.000000" stroke="none" 
	d="
M415.399231,604.869141 
	C419.645294,604.869446 423.433167,604.869446 427.437775,604.869446 
	C427.437775,607.057800 427.437775,608.793030 427.437775,610.981079 
	C422.371674,610.981079 417.459015,610.981079 412.153320,610.981079 
	C412.153320,614.165771 412.153320,616.910889 412.153320,619.664795 
	C407.892059,620.634460 405.764160,619.643433 405.946625,615.165710 
	C406.149597,610.184875 406.096863,605.186462 405.956390,600.201355 
	C405.865479,596.974304 407.167725,595.745422 410.388214,595.825500 
	C416.537628,595.978333 422.704254,596.091797 428.843170,595.795776 
	C433.351074,595.578491 435.004120,597.192139 433.780426,602.062561 
	C426.688263,602.062561 419.456299,602.062561 412.224335,602.062561 
	C412.098419,602.506348 411.972473,602.950073 411.846558,603.393860 
	C412.878052,603.885498 413.909546,604.377197 415.399231,604.869141 
z"/>
<path fill="#3A3A39" opacity="1.000000" stroke="none" 
	d="
M336.822235,380.704315 
	C336.187469,382.260986 335.487457,383.477997 334.598846,385.022858 
	C330.524170,381.905426 326.676636,378.961761 322.477142,376.016785 
	C317.767487,369.422699 313.409821,362.829956 308.535461,355.455536 
	C313.491516,355.073212 317.474457,354.765961 321.725067,354.716125 
	C322.528564,356.617737 322.765686,358.447235 323.651001,359.874664 
	C327.923920,366.764038 332.371399,373.545135 336.822235,380.704315 
z"/>
<path fill="#636362" opacity="1.000000" stroke="none" 
	d="
M399.841003,475.618317 
	C400.896698,482.030731 401.620850,488.248352 402.592926,494.768433 
	C402.693359,496.284332 402.545868,497.497772 402.132874,498.984070 
	C396.947388,491.735840 392.027374,484.214783 387.366577,476.181641 
	C388.804382,472.089447 389.983002,468.509430 391.161621,464.929382 
	C393.944244,468.427429 396.726868,471.925476 399.841003,475.618317 
z"/>
<path fill="#595959" opacity="1.000000" stroke="none" 
	d="
M391.074280,464.589172 
	C389.983002,468.509430 388.804382,472.089447 387.297302,475.840271 
	C382.067627,468.537659 377.166382,461.064270 372.154449,453.261536 
	C374.355469,454.718689 376.667206,456.505219 379.173248,458.441925 
	C381.997162,455.684387 380.805573,452.171600 380.055420,448.301727 
	C383.717133,453.343262 387.352020,458.796112 391.074280,464.589172 
z"/>
<path fill="#595959" opacity="1.000000" stroke="none" 
	d="
M380.074158,447.618195 
	C379.288483,447.042358 378.462006,446.159821 377.906921,445.104218 
	C378.796661,445.724609 379.415009,446.518066 380.074158,447.618195 
z"/>
<path fill="#3E3E3E" opacity="1.000000" stroke="none" 
	d="
M411.399231,251.527145 
	C411.757690,252.143723 411.902405,252.951736 412.052979,254.171082 
	C411.767670,253.627792 411.476562,252.673203 411.399231,251.527145 
z"/>
<path fill="#FDFDFD" opacity="1.000000" stroke="none" 
	d="
M328.491852,261.533936 
	C331.087097,276.819946 319.879639,290.635468 304.366180,290.999329 
	C294.554443,291.229431 284.733917,291.085602 274.272095,290.848206 
	C265.036041,280.636078 256.407532,270.717102 247.917603,260.680939 
	C247.139252,259.760864 247.246841,258.091309 247.414581,256.794739 
	C271.240356,256.742920 294.594604,256.666107 318.285156,256.736755 
	C319.588379,257.030273 320.555298,257.176300 321.767395,257.566223 
	C324.172302,259.051392 326.332092,260.292664 328.491852,261.533936 
z"/>
<path fill="#181918" opacity="1.000000" stroke="none" 
	d="
M317.948853,256.589294 
	C294.594604,256.666107 271.240356,256.742920 247.185089,256.537354 
	C243.918716,255.173569 241.248611,254.286331 238.809479,252.970825 
	C233.479950,250.096451 228.267761,247.004440 223.007629,244.001343 
	C222.406479,243.348526 221.805328,242.695724 220.617691,241.406052 
	C222.845016,241.228317 224.255463,241.018677 225.666077,241.017593 
	C252.214951,240.996964 278.763916,240.971527 305.312531,241.057373 
	C307.376251,241.064041 309.437347,241.886581 311.782410,242.988037 
	C314.026367,247.960541 315.987610,252.274918 317.948853,256.589294 
z"/>
<path fill="#484748" opacity="1.000000" stroke="none" 
	d="
M223.064178,244.340729 
	C228.267761,247.004440 233.479950,250.096451 238.809479,252.970825 
	C241.248611,254.286331 243.918716,255.173569 246.713562,256.512390 
	C247.246841,258.091309 247.139252,259.760864 247.917603,260.680939 
	C256.407532,270.717102 265.036041,280.636078 273.802856,290.876038 
	C266.366119,292.013275 260.316010,290.298096 255.456314,283.394867 
	C249.765564,275.311218 242.775101,268.142517 236.435806,260.083740 
	C235.970154,259.080719 235.417114,258.570892 234.864090,258.061066 
	C230.949631,253.600754 227.035172,249.140442 223.064178,244.340729 
z"/>
<path fill="#323232" opacity="1.000000" stroke="none" 
	d="
M318.285156,256.736755 
	C315.987610,252.274918 314.026367,247.960541 312.031189,243.279999 
	C314.634064,244.338715 317.270874,245.763611 319.958252,247.918549 
	C320.705292,250.300873 321.639038,251.901398 322.014648,253.623657 
	C322.263855,254.766403 321.714264,256.083344 321.522247,257.322327 
	C320.555298,257.176300 319.588379,257.030273 318.285156,256.736755 
z"/>
<path fill="#4E4D4C" opacity="1.000000" stroke="none" 
	d="
M321.767395,257.566223 
	C321.714264,256.083344 322.263855,254.766403 322.014648,253.623657 
	C321.639038,251.901398 320.705292,250.300873 320.011292,248.257553 
	C325.506714,250.435547 327.260834,255.551575 328.657532,261.166077 
	C326.332092,260.292664 324.172302,259.051392 321.767395,257.566223 
z"/>
<path fill="#414140" opacity="1.000000" stroke="none" 
	d="
M234.922501,258.354614 
	C235.417114,258.570892 235.970154,259.080719 236.308502,259.776031 
	C235.722855,259.523743 235.351883,259.085968 234.922501,258.354614 
z"/>
<path fill="#F5F5F5" opacity="1.000000" stroke="none" 
	d="
M231.938812,599.732239 
	C226.347412,599.732239 221.244888,599.732239 215.902725,599.732239 
	C215.902725,596.527466 215.902725,593.808044 215.902725,590.686340 
	C224.218750,590.686340 232.308884,590.460876 240.365891,590.876770 
	C241.974640,590.959900 243.457016,593.491455 244.997665,594.893982 
	C243.459763,596.495056 242.184662,598.867737 240.317963,599.503479 
	C237.938004,600.314148 235.079788,599.720520 231.938812,599.732239 
z"/>
<path fill="#F5F5F5" opacity="1.000000" stroke="none" 
	d="
M158.648666,594.862305 
	C158.298294,591.791809 158.941528,590.472473 162.030396,590.577759 
	C168.819229,590.809204 175.621521,590.620605 182.417923,590.666382 
	C185.282913,590.685669 187.857834,591.378418 187.970200,594.914917 
	C188.090851,598.711975 185.396194,599.653198 182.355072,599.694458 
	C174.748108,599.797791 167.138779,599.728577 159.041077,599.728577 
	C158.898880,598.142700 158.773727,596.747070 158.648666,594.862305 
z"/>
<path fill="#F5F5F5" opacity="1.000000" stroke="none" 
	d="
M478.125061,605.773865 
	C478.683472,604.219727 479.205658,602.184753 479.827240,602.153870 
	C484.472260,601.923523 489.142914,601.979675 493.790070,602.231445 
	C494.639496,602.277344 495.757690,603.495667 496.112183,604.418518 
	C496.353668,605.047302 495.469788,606.861267 495.109161,606.855652 
	C489.449158,606.767883 483.792419,606.470398 478.125061,605.773865 
z"/>
<path fill="#F5F5F5" opacity="1.000000" stroke="none" 
	d="
M449.303711,601.993164 
	C451.915649,601.993103 454.074860,602.089783 456.222351,601.972595 
	C460.451813,601.741882 463.149902,602.649902 463.130280,607.881897 
	C463.111267,612.959534 460.727570,614.208557 456.336761,613.916504 
	C453.862427,613.751892 451.356628,613.733948 448.885406,613.920349 
	C444.472351,614.253235 442.325714,612.241028 442.286316,607.923828 
	C442.246338,603.544067 444.472076,601.551208 449.303711,601.993164 
z"/>
<path fill="#F5F5F5" opacity="1.000000" stroke="none" 
	d="
M560.271118,601.668945 
	C562.328369,604.244568 564.164612,607.084839 566.359497,610.480103 
	C562.449341,610.480103 559.392761,610.480103 555.466309,610.480103 
	C557.083557,607.464722 558.566772,604.699219 560.271118,601.668945 
z"/>
</svg>